<svg width="84" height="14" viewBox="0 0 84 14" fill="none" xmlns="http://www.w3.org/2000/svg">
<path d="M2.883 13.3152L4.123 8.39079L0 5.08008L5.431 4.64445L7.558 0L9.685 4.64353L15.115 5.07915L10.992 8.38986L12.233 13.3142L7.558 10.7005L2.883 13.3152Z" fill="#5E9F97"/>
<path d="M19.9982 13.3152L21.2382 8.39079L17.1152 5.08008L22.5462 4.64445L24.6732 0L26.8002 4.64353L32.2302 5.07915L28.1072 8.38986L29.3482 13.3142L24.6732 10.7005L19.9982 13.3152Z" fill="#5E9F97"/>
<path d="M37.113 13.3152L38.353 8.39079L34.23 5.08008L39.661 4.64445L41.788 0L43.915 4.64353L49.345 5.07915L45.222 8.38986L46.463 13.3142L41.788 10.7005L37.113 13.3152Z" fill="#5E9F97"/>
<path d="M54.2277 13.3152L55.4677 8.39079L51.3447 5.08008L56.7757 4.64445L58.9027 0L61.0297 4.64353L66.4597 5.07915L62.3367 8.38986L63.5777 13.3142L58.9027 10.7005L54.2277 13.3152Z" fill="#5E9F97"/>
<path d="M71.343 13.3152L72.583 8.39079L68.46 5.08008L73.891 4.64445L76.018 0L78.145 4.64353L83.575 5.07915L79.452 8.38986L80.693 13.3142L76.018 10.7005L71.343 13.3152Z" fill="#5E9F97"/>
</svg>
