<svg width="12" height="8" viewBox="0 0 12 8" fill="none" xmlns="http://www.w3.org/2000/svg">
<path d="M11.3996 -2.86102e-06H0.599331C0.489983 0.000302792 0.3828 0.0271573 0.289317 0.0776706C0.195834 0.128184 0.119593 0.200442 0.068799 0.286669C0.0180054 0.372897 -0.00541782 0.469827 0.00105286 0.567026C0.00752258 0.664225 0.0436401 0.758012 0.105517 0.838293L5.50567 7.78401C5.72948 8.07199 6.26829 8.07199 6.4927 7.78401L11.8929 0.838293C11.9554 0.75818 11.992 0.664345 11.9988 0.566984C12.0057 0.469624 11.9824 0.372459 11.9315 0.28605C11.8807 0.19964 11.8042 0.127289 11.7105 0.0768576C11.6167 0.0264263 11.5092 -0.000156403 11.3996 -2.86102e-06ZM6 6.82444L1.5 1.04666H10.5L6 6.82444Z" fill="#2F2B24"/>
</svg>
