<svg width="84" height="14" viewBox="0 0 84 14" fill="none" xmlns="http://www.w3.org/2000/svg">
<path d="M72.408 12.0171L75.558 10.2561L78.708 12.0403L77.883 8.70361L80.658 6.47916L77.008 6.17794L75.558 3.02664L74.108 6.15476L70.458 6.45599L73.233 8.70361L72.408 12.0171ZM70.883 13.9616L72.123 9.03727L68 5.72656L73.431 5.29094L75.558 0.646484L77.685 5.29001L83.115 5.72563L78.992 9.03635L80.233 13.9607L75.558 11.347L70.883 13.9616Z" fill="#5E9F97"/>
<path d="M2.883 13.9616L4.123 9.03727L0 5.72656L5.431 5.29094L7.558 0.646484L9.685 5.29001L15.115 5.72563L10.992 9.03635L12.233 13.9607L7.558 11.347L2.883 13.9616Z" fill="#5E9F97"/>
<path d="M19.9982 13.9616L21.2382 9.03727L17.1152 5.72656L22.5462 5.29094L24.6732 0.646484L26.8002 5.29001L32.2302 5.72563L28.1072 9.03635L29.3482 13.9607L24.6732 11.347L19.9982 13.9616Z" fill="#5E9F97"/>
<path d="M37.113 13.9616L38.353 9.03727L34.23 5.72656L39.661 5.29094L41.788 0.646484L43.915 5.29001L49.345 5.72563L45.222 9.03635L46.463 13.9607L41.788 11.347L37.113 13.9616Z" fill="#5E9F97"/>
<path d="M54.2277 13.9616L55.4677 9.03727L51.3447 5.72656L56.7757 5.29094L58.9027 0.646484L61.0297 5.29001L66.4597 5.72563L62.3367 9.03635L63.5777 13.9607L58.9027 11.347L54.2277 13.9616Z" fill="#5E9F97"/>
</svg>
