<svg width="17" height="17" viewBox="0 0 17 17" fill="none" xmlns="http://www.w3.org/2000/svg">
<path d="M17 8.45573C17 7.3453 16.7801 6.24576 16.353 5.21986C15.9258 4.19396 15.2997 3.26181 14.5104 2.47662C13.7211 1.69144 12.7841 1.06859 11.7528 0.643654C10.7215 0.218714 9.61624 0 8.5 0V1.69115C9.84486 1.69111 11.1595 2.08779 12.2778 2.831C13.396 3.57422 14.2676 4.63061 14.7824 5.86658C15.1242 6.68744 15.3 7.56723 15.3 8.45573H17ZM0 6.76458V2.53672C0 2.31246 0.0895533 2.09738 0.248959 1.93881C0.408365 1.78023 0.624566 1.69115 0.85 1.69115H5.1C5.32543 1.69115 5.54164 1.78023 5.70104 1.93881C5.86045 2.09738 5.95 2.31246 5.95 2.53672V5.91901C5.95 6.14327 5.86045 6.35834 5.70104 6.51692C5.54164 6.67549 5.32543 6.76458 5.1 6.76458H3.4C3.4 8.55866 4.11643 10.2793 5.39167 11.5479C6.66692 12.8165 8.39653 13.5292 10.2 13.5292V11.838C10.2 11.6138 10.2896 11.3987 10.449 11.2401C10.6084 11.0815 10.8246 10.9924 11.05 10.9924H14.45C14.6754 10.9924 14.8916 11.0815 15.051 11.2401C15.2104 11.3987 15.3 11.6138 15.3 11.838V16.0659C15.3 16.2901 15.2104 16.5052 15.051 16.6638C14.8916 16.8224 14.6754 16.9115 14.45 16.9115H10.2C4.56705 16.9115 0 12.3682 0 6.76458Z" fill="#5E9F97"/>
<path d="M13.2115 6.51481C13.4679 7.13031 13.5999 7.79001 13.6 8.45625H12.07C12.07 7.51436 11.6939 6.61104 11.0244 5.94503C10.3549 5.27901 9.44682 4.90484 8.5 4.90484V3.38281C9.50865 3.38287 10.4946 3.68045 11.3333 4.23794C12.1719 4.79543 12.8256 5.58779 13.2115 6.51481Z" fill="#5E9F97"/>
</svg>
